<svg version="1.1" viewBox="0.0 0.0 512.0 512.0" fill="none" stroke="none" stroke-linecap="square" stroke-miterlimit="10" xmlns:xlink="http://www.w3.org/1999/xlink" xmlns="http://www.w3.org/2000/svg"><clipPath id="p.0"><path d="m0 0l512.0 0l0 512.0l-512.0 0l0 -512.0z" clip-rule="nonzero"/></clipPath><g clip-path="url(#p.0)"><path fill="#000000" fill-opacity="0.0" d="m0 0l512.0 0l0 512.0l-512.0 0z" fill-rule="evenodd"/><path fill="#000000" fill-opacity="0.0" d="m-38.280838 -167.74016l255.1181 0l0 723.9685l-255.1181 0z" fill-rule="evenodd"/><path fill="#58ad6f" d="m224.78166 161.99422l3.734375 0q26.671875 0 26.671875 12.265625q0 11.734375 -25.609375 11.734375l-93.859375 0q-23.46875 0 -23.46875 -11.734375q0 -12.265625 26.140625 -12.265625l4.265625 0q13.859375 0 18.125 -6.921875q4.265625 -6.9375 5.859375 -15.203125q1.609375 -8.28125 3.734375 -15.203125q2.140625 -6.9375 12.28125 -6.9375q6.921875 0 10.125 3.46875q3.203125 3.46875 4.53125 8.0q1.34375 4.53125 2.140625 10.40625q0.796875 5.859375 3.1875 10.65625q2.40625 4.796875 7.203125 8.265625q4.8125 3.46875 14.9375 3.46875zm-42.125 50.671875q14.390625 0 26.125 5.328125q11.734375 5.328125 20.53125 14.140625q8.796875 8.796875 13.859375 20.53125q5.078125 11.73439 5.078125 24.000015q0 14.390625 -5.609375 26.390625q-5.59375 12.0 -14.390625 20.265625q-8.796875 8.265625 -21.0625 12.8125q-12.265625 4.53125 -24.53125 4.53125q-12.8125 0 -24.546875 -4.796875q-11.71875 -4.8125 -21.0625 -13.078125q-9.328125 -8.265625 -14.40625 -20.265625q-5.0625 -12.0 -5.0625 -25.859375q0 -11.734375 4.53125 -23.20314q4.546875 -11.46875 13.34375 -20.53125q8.796875 -9.0625 20.796875 -14.65625q12.0 -5.609375 26.40625 -5.609375zm0 100.79689q6.390625 0 13.0625 -2.125q6.671875 -2.140625 12.0 -6.9375q5.328125 -4.8125 8.796875 -11.46875q3.46875 -6.671875 3.46875 -15.734375q0 -14.40625 -10.9375 -25.062515q-10.9375 -10.671875 -26.390625 -10.671875q-18.140625 0 -27.484375 11.46875q-9.328125 11.468765 -9.328125 24.26564q0 16.53125 10.40625 26.40625q10.40625 9.859375 26.40625 9.859375z" fill-rule="nonzero"/><path fill="#000000" fill-opacity="0.0" d="m128.44095 -167.74016l255.1181 0l0 723.9685l-255.1181 0z" fill-rule="evenodd"/><path fill="#58ad6f" d="m422.44095 327.32236q0 11.734375 -21.875 11.734375l-78.921875 0q-38.9375 0 -38.9375 -34.125l0 -58.14064q0 -28.796875 19.203125 -28.796875q19.203125 0 19.203125 29.859375l0 32.54689q0 36.265625 36.796875 36.265625l42.125 0q22.40625 0 22.40625 10.65625z" fill-rule="nonzero"/></g></svg>